# xmcd
#
# Track frame offsets:
# 150
# 21028
# 46623
# 72848
# 89276
# 107888
# 123621
# 142804
# 164258
# 185189
# 198438
# 215625
# 236626
# 253003
# 268116
#
# Disc length: 3889 seconds
#
#
# Revision: 0
# Processed by: cddbd v1.5.2PL0 Copyright (c) Steve Scherf et al.
# Submitted via: FreeRIP 2.951 
#
DISCID=db0f2f0f
DTITLE=The International Trio - The Spirit of Sidney Bechet
DYEAR=1900
DGENRE=
TTITLE0=Promenade aux Champs-Élysées
TTITLE1=Dans les rues d´Antibes
TTITLE2=Georgia Cabin
TTITLE3=Swing Parade
TTITLE4=Just One Of Those Things
TTITLE5=Breathless Blues
TTITLE6=Polka Dot Stomp
TTITLE7=Egyptian Fantasy
TTITLE8=Liza
TTITLE9=Petite Fleur
TTITLE10=Les Oignons
TTITLE11=Si tu vois ma mère
TTITLE12=12th Street Rag
TTITLE13=Buddy Bolden Stomp
TTITLE14=Spreading Joy
EXTD=
EXTT0=
EXTT1=
EXTT2=
EXTT3=
EXTT4=
EXTT5=
EXTT6=
EXTT7=
EXTT8=
EXTT9=
EXTT10=
EXTT11=
EXTT12=
EXTT13=
EXTT14=
PLAYORDER=
